<svg width="21" height="18" viewBox="0 0 21 18" fill="none" xmlns="http://www.w3.org/2000/svg">
<path d="M12.0058 0.289656C12.8965 -0.0411447 13.8442 0.617542 13.8442 1.56785L13.8436 4.16369C15.6028 4.74165 17.4755 4.95778 19.3476 4.7815C20.238 4.69748 20.9503 5.47366 20.826 6.33059L20.7927 6.49202L18.9416 13.4005C18.5771 14.7603 17.6642 15.9021 16.429 16.5582L16.1595 16.6913L15.2073 17.1267C12.6201 18.3102 9.57408 17.5611 7.82656 15.3502L7.63783 15.0985L7.35027 14.6954C5.93743 14.7107 4.52038 14.2409 3.36516 13.286L2.55823 12.6189C1.39572 11.6579 0.722656 10.2283 0.722656 8.71999V1.56785C0.722656 0.617544 1.67021 -0.0410996 2.56113 0.289679C5.60758 1.42142 8.95931 1.42142 12.0058 0.289656ZM13.8438 5.73053L13.8442 8.71999C13.8442 9.32383 13.7364 9.91507 13.5324 10.4687C14.582 10.929 15.3635 11.8458 15.6567 12.9592C15.7619 13.3588 15.5233 13.768 15.1236 13.8733C14.7331 13.9761 14.3334 13.7505 14.2172 13.3672L14.2095 13.3403C14.0211 12.6246 13.5006 12.0452 12.8063 11.7866C12.576 12.0917 12.3086 12.3709 12.0087 12.6188L11.2017 13.286C10.543 13.8305 9.79911 14.2173 9.01945 14.4464L8.85734 14.2312C10.0973 15.9748 12.3563 16.6388 14.3292 15.8738L14.5849 15.7659L15.5371 15.3304C16.4224 14.9255 17.0997 14.1779 17.4182 13.2658L17.4961 13.0132L19.298 6.28795L19.1669 6.29815C17.3603 6.42936 15.5582 6.23272 13.8438 5.73053ZM12.3478 1.75763L12.2205 1.80256C8.98852 2.92436 5.46914 2.91229 2.24348 1.76642L2.21913 1.75763V8.71999C2.21913 9.76277 2.676 10.7521 3.46742 11.4283L3.51173 11.4655L4.31865 12.1326C6.03927 13.5549 8.52762 13.5549 10.2482 12.1327L11.0552 11.4655C11.8738 10.7888 12.3478 9.78208 12.3478 8.71999V1.75763ZM10.2787 8.08918C10.6375 8.29424 10.7621 8.75132 10.557 9.11009C9.89057 10.2761 8.65115 11.0118 7.28346 11.0118C5.91579 11.0118 4.6764 10.2761 4.00982 9.11016C3.80472 8.75141 3.92928 8.29432 4.28803 8.08922C4.63823 7.889 5.08216 8.00294 5.29389 8.34221L5.30896 8.36743C5.71185 9.07214 6.45849 9.51534 7.28346 9.51534C8.10842 9.51534 8.85503 9.07214 9.25778 8.3675C9.46284 8.00873 9.91992 7.88412 10.2787 8.08918Z" fill="white"/>
</svg>
