<svg width="20" height="20" viewBox="0 0 20 20" fill="none" xmlns="http://www.w3.org/2000/svg">
<path d="M17.332 17.3011V7.1706L9.9987 2.69633L2.66536 7.1706V17.3011H6.33203V14.7377C6.33203 13.7488 6.71834 12.8005 7.40597 12.1012C8.09361 11.402 9.02624 11.0091 9.9987 11.0091C10.9712 11.0091 11.9038 11.402 12.5914 12.1012C13.2791 12.8005 13.6654 13.7488 13.6654 14.7377V17.3011H17.332ZM11.832 19.1654V14.7377C11.832 14.2433 11.6389 13.7691 11.2951 13.4195C10.9512 13.0698 10.4849 12.8734 9.9987 12.8734C9.51247 12.8734 9.04615 13.0698 8.70234 13.4195C8.35852 13.7691 8.16536 14.2433 8.16536 14.7377V19.1654H2.66536C2.17913 19.1654 1.71282 18.969 1.369 18.6193C1.02519 18.2697 0.832031 17.7955 0.832031 17.3011V7.1706C0.832028 6.84866 0.914009 6.53221 1.06999 6.25206C1.22597 5.97191 1.45064 5.73761 1.72211 5.57198L9.05545 1.09771C9.34038 0.923863 9.66641 0.832031 9.9987 0.832031C10.331 0.832031 10.657 0.923863 10.9419 1.09771L18.2753 5.57198C18.5468 5.73761 18.7714 5.97191 18.9274 6.25206C19.0834 6.53221 19.1654 6.84866 19.1654 7.1706V17.3011C19.1654 17.7955 18.9722 18.2697 18.6284 18.6193C18.2846 18.969 17.8183 19.1654 17.332 19.1654H11.832Z" fill="white"/>
</svg>
