<svg width="20" height="13" viewBox="0 0 20 13" fill="none" xmlns="http://www.w3.org/2000/svg">
<path d="M17 12C17 12.5523 16.5523 13 16 13C15.4477 13 15 12.5523 15 12V10H13C12.4477 10 12 9.55229 12 9C12 8.44771 12.4477 8 13 8H15V6C15 5.44772 15.4477 5 16 5C16.5523 5 17 5.44772 17 6V8H19C19.5523 8 20 8.44771 20 9C20 9.55229 19.5523 10 19 10H17V12ZM10 9C10 9.55229 9.55229 10 9 10H1C0.447715 10 0 9.55229 0 9C0 8.44771 0.447715 8 1 8H9C9.55228 8 10 8.44771 10 9ZM13 5C13 5.55228 12.5523 6 12 6H1C0.447715 6 0 5.55228 0 5C0 4.44772 0.447715 4 1 4H12C12.5523 4 13 4.44772 13 5ZM13 1C13 1.55228 12.5523 2 12 2H1C0.447715 2 0 1.55228 0 1C0 0.447715 0.447715 0 1 0H12C12.5523 0 13 0.447715 13 1Z" fill="white"/>
</svg>
