<svg width="19" height="19" viewBox="0 0 19 19" fill="none" xmlns="http://www.w3.org/2000/svg">
<path fill-rule="evenodd" clip-rule="evenodd" d="M18.9531 9.51509C18.9612 4.31597 14.7294 0.0631997 9.53021 0.0469221C6.34663 0.0369771 3.52845 1.60111 1.80859 4.00406V1.33595C1.80859 0.951951 1.49728 0.640634 1.11328 0.640634H0.742188C0.358193 0.640634 0.046875 0.951951 0.046875 1.33595V6.6797C0.046875 7.06369 0.358193 7.37501 0.742188 7.37501H6.08594C6.46993 7.37501 6.78125 7.06369 6.78125 6.6797V6.3086C6.78125 5.92461 6.46993 5.61329 6.08594 5.61329H2.86145C4.19732 3.33569 6.67062 1.8086 9.5 1.8086C13.765 1.8086 17.1914 5.26797 17.1914 9.50001C17.1914 13.765 13.732 17.1914 9.5 17.1914C7.52066 17.1914 5.71852 16.4454 4.35656 15.2196C4.08149 14.9721 3.66146 14.985 3.4009 15.2455L3.13857 15.5078C2.85557 15.7908 2.87087 16.2508 3.16567 16.5171C4.84174 18.031 7.06346 18.9531 9.5 18.9531C14.7158 18.9531 18.945 14.729 18.9531 9.51509ZM9.35156 3.60938C8.96757 3.60938 8.65625 3.9207 8.65625 4.3047V10.5234L11.9092 12.8892C12.2198 13.1151 12.6546 13.0464 12.8805 12.7358L13.0551 12.4957C13.281 12.1852 13.2123 11.7503 12.9018 11.5245L10.3438 9.66412V4.3047C10.3438 3.9207 10.0324 3.60938 9.64844 3.60938H9.35156Z" fill="white"/>
</svg>
