<svg width="19" height="18" viewBox="0 0 19 18" fill="none" xmlns="http://www.w3.org/2000/svg">
<path d="M9.28839 14.166C8.74413 14.166 3.96373 14.1569 2.59402 13.785C1.58714 13.5129 0.779822 12.7146 0.498622 11.7168C0.235564 10.2564 0.10857 8.85037 0.117641 7.46252C0.117641 6.10187 0.235564 4.70494 0.48048 3.3443C0.752609 2.24671 1.55085 1.42125 2.58494 1.13098C3.96373 0.759071 8.74413 0.75 9.28839 0.75C9.82358 0.75 14.604 0.759071 15.9556 1.0947C17.0169 1.39404 17.8151 2.2195 18.0782 3.25359C18.0872 3.27173 18.0872 3.28987 18.0872 3.31708C18.3321 4.69587 18.4591 6.0928 18.4501 7.48066C18.4591 8.8413 18.3321 10.2201 18.0872 11.5717C17.8151 12.6693 17.0169 13.4947 15.9828 13.785C14.613 14.1569 9.83265 14.166 9.28839 14.166ZM9.28839 2.56419C7.33813 2.56419 3.91838 2.64583 3.06571 2.87261C2.67565 2.98146 2.35817 3.30801 2.24932 3.71621C2.04069 4.92265 1.93183 6.20165 1.94091 7.47159C1.93183 8.75966 2.04069 10.0477 2.26746 11.3177C2.35817 11.6261 2.67565 11.9345 3.07478 12.0434C3.92745 12.2701 7.33813 12.3608 9.28839 12.3608C11.2386 12.3608 14.6584 12.2792 15.5111 12.0434C15.9011 11.9345 16.2186 11.6079 16.3275 11.1998C16.5361 10.0115 16.654 8.74152 16.6449 7.48066C16.654 6.20165 16.5452 4.92265 16.3184 3.67085C16.2095 3.27173 15.9011 2.96332 15.502 2.84539C14.6675 2.63676 11.2477 2.56419 9.28839 2.56419Z" fill="white"/>
<path d="M7.60302 10.8381C7.44881 10.8381 7.28553 10.8019 7.14947 10.7112C6.86827 10.5479 6.69592 10.2485 6.69592 9.93105V5.02366C6.69592 4.6971 6.86827 4.39776 7.14947 4.24355C7.43067 4.08027 7.77537 4.08027 8.05657 4.24355L12.3743 6.70178C12.6555 6.86506 12.837 7.1644 12.837 7.49096C12.837 7.81751 12.6646 8.11686 12.3743 8.28013L8.05657 10.7384C7.91143 10.7928 7.75722 10.8381 7.60302 10.8381ZM7.92957 5.54977V9.39586L11.304 7.47282L7.92957 5.54977ZM14.8235 17.079H3.93835C3.43944 17.079 3.03125 16.6708 3.03125 16.1719C3.03125 15.673 3.43944 15.2648 3.93835 15.2648H14.8235C15.3224 15.2648 15.7306 15.673 15.7306 16.1719C15.7306 16.6708 15.3315 17.079 14.8235 17.079Z" fill="white"/>
</svg>
