<svg width="20" height="20" viewBox="0 0 20 20" fill="none" xmlns="http://www.w3.org/2000/svg">
<path fill-rule="evenodd" clip-rule="evenodd" d="M3.48203 2.4987C2.93895 2.4987 2.4987 2.93895 2.4987 3.48203V16.5154C2.4987 17.0584 2.93895 17.4987 3.48203 17.4987H16.5154C17.0584 17.4987 17.4987 17.0584 17.4987 16.5154V3.48203C17.4987 2.93895 17.0584 2.4987 16.5154 2.4987H3.48203ZM0.832031 3.48203C0.832031 2.01848 2.01848 0.832031 3.48203 0.832031H16.5154C17.9789 0.832031 19.1654 2.01848 19.1654 3.48203V16.5154C19.1654 17.9789 17.9789 19.1654 16.5154 19.1654H3.48203C2.01848 19.1654 0.832031 17.9789 0.832031 16.5154V3.48203Z" fill="white"/>
<path fill-rule="evenodd" clip-rule="evenodd" d="M5.83333 0.832031C6.29357 0.832031 6.66667 1.20513 6.66667 1.66536V18.332C6.66667 18.7923 6.29357 19.1654 5.83333 19.1654C5.3731 19.1654 5 18.7923 5 18.332V1.66536C5 1.20513 5.3731 0.832031 5.83333 0.832031Z" fill="white"/>
<path fill-rule="evenodd" clip-rule="evenodd" d="M14.1654 0.832031C14.6256 0.832031 14.9987 1.20513 14.9987 1.66536V18.332C14.9987 18.7923 14.6256 19.1654 14.1654 19.1654C13.7051 19.1654 13.332 18.7923 13.332 18.332V1.66536C13.332 1.20513 13.7051 0.832031 14.1654 0.832031Z" fill="white"/>
<path fill-rule="evenodd" clip-rule="evenodd" d="M0.832031 9.9974C0.832031 9.53716 1.20513 9.16406 1.66536 9.16406H18.332C18.7923 9.16406 19.1654 9.53716 19.1654 9.9974C19.1654 10.4576 18.7923 10.8307 18.332 10.8307H1.66536C1.20513 10.8307 0.832031 10.4576 0.832031 9.9974Z" fill="white"/>
<path fill-rule="evenodd" clip-rule="evenodd" d="M0.832031 5.83333C0.832031 5.3731 1.20513 5 1.66536 5H5.83203C6.29227 5 6.66536 5.3731 6.66536 5.83333C6.66536 6.29357 6.29227 6.66667 5.83203 6.66667H1.66536C1.20513 6.66667 0.832031 6.29357 0.832031 5.83333Z" fill="white"/>
<path fill-rule="evenodd" clip-rule="evenodd" d="M0.832031 14.1654C0.832031 13.7051 1.20513 13.332 1.66536 13.332H5.83203C6.29227 13.332 6.66536 13.7051 6.66536 14.1654C6.66536 14.6256 6.29227 14.9987 5.83203 14.9987H1.66536C1.20513 14.9987 0.832031 14.6256 0.832031 14.1654Z" fill="white"/>
<path fill-rule="evenodd" clip-rule="evenodd" d="M13.332 14.1654C13.332 13.7051 13.7051 13.332 14.1654 13.332H18.332C18.7923 13.332 19.1654 13.7051 19.1654 14.1654C19.1654 14.6256 18.7923 14.9987 18.332 14.9987H14.1654C13.7051 14.9987 13.332 14.6256 13.332 14.1654Z" fill="white"/>
<path fill-rule="evenodd" clip-rule="evenodd" d="M13.332 5.83333C13.332 5.3731 13.7051 5 14.1654 5H18.332C18.7923 5 19.1654 5.3731 19.1654 5.83333C19.1654 6.29357 18.7923 6.66667 18.332 6.66667H14.1654C13.7051 6.66667 13.332 6.29357 13.332 5.83333Z" fill="white"/>
</svg>
